 http://www.imdb.com/title/tt0077405/

Source: Days Of Heaven 1978 720p BluRay x264-LCHD Thanks!

Subs: Croatian, Dutch, English, Finnish, French, Greek, Hungarian, Italian, Servian and Spanish.

Sample and Screens included.

General
Complete name                            : Days Of Heaven-720p MP4 AAC x264 BRRip 1978-CC.mp4
Format                                   : MPEG-4
Format profile                           : Base Media
Codec ID                                 : isom
File size                                : 2.62 GiB
Duration                                 : 1h 34mn
Overall bit rate mode                    : Variable
Overall bit rate                         : 3 996 Kbps
Encoded date                             : UTC 2012-09-14 06:57:47

Video
ID                                       : 1
Format                                   : AVC
Format/Info                              : Advanced Video Codec
Format profile                           : High@L3.1
Format settings, CABAC                   : Yes
Format settings, ReFrames                : 5 frames
Codec ID                                 : avc1
Codec ID/Info                            : Advanced Video Coding
Duration                                 : 1h 33mn
Bit rate                                 : 3 672 Kbps
Maximum bit rate                         : 21.5 Mbps
Width                                    : 1 280 pixels
Height                                   : 720 pixels
Display aspect ratio                     : 16:9
Frame rate mode                          : Variable
Frame rate                               : 23.976 fps
Minimum frame rate                       : 19.048 fps
Maximum frame rate                       : 24.390 fps
Color space                              : YUV
Chroma subsampling                       : 4:2:0
Bit depth                                : 8 bits
Scan type                                : Progressive
Bits/(Pixel*Frame)                       : 0.166
Stream size                              : 2.37 GiB (90%)
Writing library                          : x264 core 112

Audio
ID                                       : 2
Format                                   : AAC
Format/Info                              : Advanced Audio Codec
Format profile                           : LC
Codec ID                                 : 40
Duration                                 : 1h 34mn
Bit rate mode                            : Variable
Bit rate                                 : 384 Kbps
Maximum bit rate                         : 542 Kbps
Channel(s)                               : 6 channels
Channel positions                        : Front: L C R, Side: L R, LFE
Sampling rate                            : 48.0 KHz
Compression mode                         : Lossy
Delay relative to video                  : 83ms
Stream size                              : 258 MiB (10%)
Language                                 : English

Enjoy...

Requested by DreamExtractor.

Coming up soon: Cradle 2 The Grave, Titanic, Batman Begins and more...